<svg width="1810" height="305" viewBox="0 0 1810 305" fill="none" xmlns="http://www.w3.org/2000/svg">
<g clip-path="url(#clip0_7233_17993)">
<path fill-rule="evenodd" clip-rule="evenodd" d="M62.0871 23.3589C60.0791 25.2805 59.6129 28.3104 60.9747 30.6692C61.922 32.31 63.5928 33.3471 65.4203 33.5645C66.4678 32.9081 67.5312 32.268 68.6105 31.6449C69.6912 31.0209 70.7786 30.4192 71.8723 29.8396C72.5978 28.1482 72.5351 26.1826 71.5878 24.5417C70.226 22.1831 67.369 21.0718 64.7009 21.8499C64.2619 22.0956 63.8238 22.3447 63.3868 22.597C62.9512 22.8485 62.518 23.1024 62.0871 23.3589ZM48.9302 32.5173C49.3225 33.9209 49.8961 35.2999 50.6606 36.624C51.731 38.478 53.0816 40.0617 54.6275 41.3563C35.5481 57.1405 23.4296 79.0231 19.4973 102.432C16.1883 101.209 12.5333 100.965 9.01345 101.808C13.2163 75.167 27.0136 50.235 48.9302 32.5173ZM79.2111 15.0355C80.2303 16.0769 81.1375 17.263 81.9019 18.5869C82.9724 20.4411 83.6687 22.4029 84.0168 24.3893C107.14 15.7914 132.05 16.2035 154.227 24.4144C154.873 20.9425 156.54 17.6731 159.078 15.0779C133.93 5.43246 105.479 4.92859 79.2111 15.0355ZM173.102 21.6021C174.31 22.2698 175.508 22.9605 176.693 23.6741C176.891 23.9153 177.071 24.1747 177.23 24.4512C178.835 27.2297 177.902 30.9394 174.901 32.672C174.179 33.0892 173.417 33.3452 172.654 33.4547C170.554 32.1446 168.411 30.9149 166.23 29.7668C165.208 27.1154 166.23 23.9264 168.947 22.3579C170.278 21.5889 171.744 21.3676 173.102 21.6021ZM183.417 41.201C186.223 38.8631 188.195 35.7828 189.188 32.4216C199.543 40.7894 208.563 51.1675 215.618 63.3871C222.673 75.6068 227.15 88.6072 229.22 101.759C225.812 100.938 222.159 101.106 218.731 102.367C216.788 90.7959 212.781 79.3695 206.57 68.6109C200.358 57.8524 192.466 48.669 183.417 41.201ZM220.04 122.969C220.136 120.505 220.143 118.034 220.058 115.561C220.534 114.955 221.137 114.423 221.86 114.006C224.861 112.273 228.539 113.321 230.144 116.099C230.303 116.376 230.438 116.662 230.548 116.954C230.573 118.337 230.573 119.719 230.547 121.099C230.071 122.393 229.146 123.551 227.814 124.32C225.098 125.889 221.825 125.179 220.04 122.969ZM218.674 136.04C214.703 159.312 202.638 181.057 183.685 196.777C185.238 198.075 186.595 199.663 187.669 201.524C188.43 202.842 189.001 204.213 189.394 205.609C211.219 187.919 224.971 163.066 229.185 136.506C225.668 137.407 222.003 137.216 218.674 136.04ZM176.249 214.784C175.778 215.065 175.304 215.343 174.828 215.618C174.431 215.847 174.034 216.073 173.636 216.296C170.966 217.079 168.105 215.967 166.742 213.607C165.796 211.968 165.732 210.006 166.455 208.316C167.51 207.755 168.56 207.173 169.604 206.57C170.72 205.926 171.82 205.263 172.902 204.583C174.732 204.798 176.407 205.836 177.355 207.479C178.716 209.836 178.252 212.862 176.249 214.784ZM154.317 213.781C154.666 215.76 155.361 217.714 156.428 219.561C157.196 220.892 158.109 222.084 159.135 223.129C132.797 233.301 104.256 232.797 79.0418 223.101C81.5317 220.474 83.1484 217.187 83.7435 213.71C106.019 222.023 131.075 222.457 154.317 213.781ZM65.7499 204.878C67.6377 206.051 69.5605 207.158 71.5147 208.199C72.8189 210.925 71.838 214.373 68.9773 216.025C67.8859 216.655 66.7047 216.917 65.5664 216.863C63.955 215.982 62.3636 215.061 60.7937 214.099C60.7594 214.044 60.7259 213.988 60.6933 213.932C59.0892 211.153 60.0215 207.443 63.0225 205.711C63.8968 205.206 64.8286 204.937 65.7499 204.878ZM54.7549 196.979C45.7232 189.517 37.8462 180.346 31.6445 169.604C25.4427 158.862 21.4386 147.455 19.4924 135.902C16.0882 137.224 12.4458 137.455 9.03326 136.7C11.1192 149.768 15.5852 162.684 22.5966 174.828C29.608 186.972 38.56 197.297 48.8348 205.638C49.887 202.305 51.9085 199.266 54.7549 196.979ZM7.68559 122.113C7.7161 122.17 7.74764 122.227 7.78023 122.283C9.38438 125.062 13.0633 126.109 16.0642 124.377C16.9385 123.872 17.6372 123.199 18.1488 122.431C18.0776 120.21 18.0801 117.991 18.1552 115.778C16.4469 113.286 12.9701 112.411 10.1093 114.063C9.01792 114.693 8.20012 115.584 7.67845 116.598C7.63535 118.433 7.63758 120.272 7.68559 122.113Z" fill="#666666"/>
<path d="M76.7448 21.5643C80.0336 27.2606 78.015 34.5831 72.2361 37.9196C66.4572 41.256 59.1064 39.3429 55.8176 33.6466C52.5289 27.9503 54.5475 20.6278 60.3264 17.2914C66.1053 13.9549 73.456 15.868 76.7448 21.5643Z" fill="#666666"/>
<path d="M76.4636 204.827C79.7523 210.523 77.7337 217.845 71.9548 221.182C66.1759 224.518 58.8252 222.605 55.5364 216.909C52.2476 211.213 54.2662 203.89 60.0451 200.554C65.824 197.217 73.1748 199.13 76.4636 204.827Z" fill="#666666"/>
<path d="M235.301 113.122C238.589 118.818 236.571 126.141 230.792 129.477C225.013 132.814 217.662 130.901 214.374 125.204C211.085 119.508 213.103 112.185 218.882 108.849C224.661 105.513 232.012 107.426 235.301 113.122Z" fill="#666666"/>
<path d="M23.5505 113.178C26.8392 118.874 24.8206 126.197 19.0417 129.533C13.2629 132.87 5.91208 130.957 2.62331 125.26C-0.665466 119.564 1.35316 112.242 7.13204 108.905C12.9109 105.569 20.2617 107.482 23.5505 113.178Z" fill="#666666"/>
<path d="M182.512 204.501C185.801 210.198 183.783 217.52 178.004 220.857C172.225 224.193 164.874 222.28 161.585 216.584C158.296 210.887 160.315 203.565 166.094 200.228C171.873 196.892 179.224 198.805 182.512 204.501Z" fill="#666666"/>
<path d="M182.388 21.4735C185.676 27.1698 183.658 34.4923 177.879 37.8288C172.1 41.1652 164.749 39.2521 161.46 33.5558C158.172 27.8595 160.19 20.537 165.969 17.2005C171.748 13.8641 179.099 15.7772 182.388 21.4735Z" fill="#666666"/>
<path d="M88.242 147.256L60.9565 120.329L88.462 96.0957L94.8433 107.136L79.2202 120.868L95.0634 136.755L88.242 147.256Z" fill="#666666"/>
<path d="M149.634 147.256L142.813 136.755L158.656 120.868L143.033 107.136L149.414 96.0957L176.92 120.329L149.634 147.256Z" fill="#666666"/>
<path d="M137.383 81.5167L126.471 76.9229L102.052 163.126L112.965 167.72L137.383 81.5167Z" fill="#666666"/>
</g>
<path d="M350.96 126.1H368.32V166H303.92V68H323.1V148.92H350.96V126.1ZM389.545 100.76C393.279 99.08 397.572 97.6333 402.425 96.42C407.372 95.2067 413.205 94.6 419.925 94.6C424.779 94.6 428.885 95.2067 432.245 96.42C435.699 97.54 438.452 99.1733 440.505 101.32C442.652 103.467 444.192 106.033 445.125 109.02C446.059 112.007 446.525 115.367 446.525 119.1C446.525 123.86 446.339 127.92 445.965 131.28C445.685 134.64 445.545 137.627 445.545 140.24C445.545 142.2 445.639 144.393 445.825 146.82C446.012 148.127 446.152 149.387 446.245 150.6H455.345V166H432.105L430.285 156.48H429.585C427.719 159.373 425.059 161.893 421.605 164.04C418.152 166.093 413.485 167.12 407.605 167.12C400.605 167.12 395.052 165.253 390.945 161.52C386.839 157.787 384.785 152.84 384.785 146.68C384.785 142.76 385.485 139.4 386.885 136.6C388.379 133.707 390.479 131.373 393.185 129.6C395.985 127.733 399.299 126.38 403.125 125.54C407.045 124.607 411.385 124.14 416.145 124.14C417.825 124.14 419.599 124.233 421.465 124.42C423.332 124.607 425.619 124.793 428.325 124.98C428.512 124.047 428.605 123.113 428.605 122.18V119.52C428.605 115.973 427.579 113.453 425.525 111.96C423.472 110.373 420.439 109.58 416.425 109.58C411.665 109.58 407.372 110.187 403.545 111.4C399.719 112.613 396.499 113.827 393.885 115.04L389.545 100.76ZM413.485 152.14C417.965 152.14 421.325 151.347 423.565 149.76C425.805 148.08 427.439 146.307 428.465 144.44V136.04C427.532 135.853 426.132 135.667 424.265 135.48C422.399 135.2 420.392 135.06 418.245 135.06C416.472 135.06 414.699 135.247 412.925 135.62C411.152 135.9 409.565 136.413 408.165 137.16C406.765 137.813 405.645 138.7 404.805 139.82C403.965 140.94 403.545 142.293 403.545 143.88C403.545 146.493 404.292 148.547 405.785 150.04C407.372 151.44 409.939 152.14 413.485 152.14ZM936.762 133.1H952.162V161.1C949.175 163.247 945.348 164.927 940.682 166.14C936.108 167.353 931.395 167.96 926.542 167.96C920.382 167.96 914.502 167.073 908.902 165.3C903.395 163.433 898.542 160.493 894.342 156.48C890.142 152.373 886.782 147.1 884.262 140.66C881.742 134.127 880.482 126.24 880.482 117C880.482 107.387 881.882 99.36 884.682 92.92C887.575 86.3867 891.262 81.16 895.742 77.24C900.222 73.2267 905.215 70.38 910.722 68.7C916.228 66.9267 921.642 66.04 926.962 66.04C932.562 66.04 937.275 66.5067 941.102 67.44C945.022 68.3733 948.242 69.4467 950.762 70.66V99.78H935.362V83.82C932.468 83.3533 929.482 83.12 926.402 83.12C922.762 83.12 919.355 83.82 916.182 85.22C913.102 86.5267 910.395 88.58 908.062 91.38C905.728 94.18 903.908 97.7267 902.602 102.02C901.295 106.22 900.642 111.213 900.642 117C900.642 122.04 901.248 126.66 902.462 130.86C903.675 134.967 905.448 138.513 907.782 141.5C910.115 144.487 912.962 146.82 916.322 148.5C919.682 150.087 923.508 150.88 927.802 150.88C930.882 150.88 933.868 150.6 936.762 150.04V133.1ZM963.447 131C963.447 125.12 964.334 119.893 966.107 115.32C967.88 110.747 970.4 106.873 973.667 103.7C976.934 100.527 980.807 98.1467 985.287 96.56C989.86 94.88 994.947 94.04 1000.55 94.04C1006.43 94.04 1011.65 94.9267 1016.23 96.7C1020.89 98.4733 1024.81 100.993 1027.99 104.26C1031.16 107.433 1033.54 111.307 1035.13 115.88C1036.81 120.453 1037.65 125.493 1037.65 131C1037.65 136.88 1036.76 142.107 1034.99 146.68C1033.21 151.253 1030.69 155.127 1027.43 158.3C1024.16 161.473 1020.24 163.9 1015.67 165.58C1011.19 167.167 1006.15 167.96 1000.55 167.96C994.667 167.96 989.394 167.073 984.727 165.3C980.154 163.527 976.28 161.053 973.107 157.88C969.934 154.613 967.507 150.693 965.827 146.12C964.24 141.547 963.447 136.507 963.447 131ZM982.207 131C982.207 134.08 982.627 136.927 983.467 139.54C984.307 142.153 985.52 144.44 987.107 146.4C988.694 148.36 990.607 149.9 992.847 151.02C995.087 152.047 997.654 152.56 1000.55 152.56C1005.96 152.56 1010.35 150.833 1013.71 147.38C1017.16 143.927 1018.89 138.467 1018.89 131C1018.89 124.56 1017.3 119.38 1014.13 115.46C1010.95 111.447 1006.43 109.44 1000.55 109.44C997.934 109.44 995.507 109.86 993.267 110.7C991.027 111.447 989.067 112.707 987.387 114.48C985.8 116.253 984.54 118.493 983.607 121.2C982.674 123.907 982.207 127.173 982.207 131ZM1044.17 96H1068.67L1070.77 105.24H1071.33C1073.48 102.253 1076.56 99.64 1080.57 97.4C1084.59 95.16 1089.39 94.04 1094.99 94.04C1098.45 94.04 1101.67 94.5067 1104.65 95.44C1107.73 96.3733 1110.35 97.9133 1112.49 100.06C1114.64 102.207 1116.32 105.147 1117.53 108.88C1118.84 112.52 1119.49 117.047 1119.49 122.46V166H1101.29V126.24C1101.29 120.547 1099.99 116.44 1097.37 113.92C1094.85 111.4 1091.63 110.14 1087.71 110.14C1084.26 110.14 1081.09 111.167 1078.19 113.22C1075.39 115.18 1073.48 117.653 1072.45 120.64V166H1054.25V111.4H1044.17V96ZM1128.12 96H1152.62L1154.72 105.24H1155.28C1157.42 102.253 1160.5 99.64 1164.52 97.4C1168.53 95.16 1173.34 94.04 1178.94 94.04C1182.39 94.04 1185.61 94.5067 1188.6 95.44C1191.68 96.3733 1194.29 97.9133 1196.44 100.06C1198.58 102.207 1200.26 105.147 1201.48 108.88C1202.78 112.52 1203.44 117.047 1203.44 122.46V166H1185.24V126.24C1185.24 120.547 1183.93 116.44 1181.32 113.92C1178.8 111.4 1175.58 110.14 1171.66 110.14C1168.2 110.14 1165.03 111.167 1162.14 113.22C1159.34 115.18 1157.42 117.653 1156.4 120.64V166H1138.2V111.4H1128.12V96ZM1285.14 158.58C1283.93 159.7 1282.34 160.82 1280.38 161.94C1278.52 162.967 1276.28 163.947 1273.66 164.88C1271.14 165.813 1268.34 166.56 1265.26 167.12C1262.18 167.68 1258.92 167.96 1255.46 167.96C1249.49 167.96 1244.12 167.12 1239.36 165.44C1234.7 163.76 1230.73 161.333 1227.46 158.16C1224.2 154.893 1221.68 151.02 1219.9 146.54C1218.22 141.967 1217.38 136.787 1217.38 131C1217.38 124.84 1218.36 119.473 1220.32 114.9C1222.28 110.233 1224.94 106.36 1228.3 103.28C1231.76 100.2 1235.77 97.9133 1240.34 96.42C1244.92 94.8333 1249.86 94.04 1255.18 94.04C1258.73 94.04 1262.37 94.5067 1266.1 95.44C1269.93 96.3733 1273.43 98.0067 1276.6 100.34C1279.78 102.58 1282.34 105.613 1284.3 109.44C1286.36 113.267 1287.38 118.12 1287.38 124C1287.38 128.013 1286.92 132.353 1285.98 137.02H1235.58C1235.68 140.007 1236.28 142.527 1237.4 144.58C1238.62 146.633 1240.16 148.313 1242.02 149.62C1243.98 150.927 1246.18 151.907 1248.6 152.56C1251.12 153.12 1253.78 153.4 1256.58 153.4C1262.18 153.4 1266.76 152.747 1270.3 151.44C1273.94 150.133 1276.88 148.547 1279.12 146.68L1285.14 158.58ZM1254.9 108.6C1252.48 108.6 1250.19 108.927 1248.04 109.58C1245.9 110.233 1243.94 111.213 1242.16 112.52C1240.48 113.733 1239.08 115.273 1237.96 117.14C1236.84 119.007 1236.19 121.107 1236 123.44H1270.44C1270.44 118.867 1269.14 115.273 1266.52 112.66C1264 109.953 1260.13 108.6 1254.9 108.6ZM1370.77 159.28C1366.94 162.173 1362.46 164.367 1357.33 165.86C1352.19 167.26 1346.83 167.96 1341.23 167.96C1335.16 167.96 1329.75 167.073 1324.99 165.3C1320.32 163.527 1316.35 161.053 1313.09 157.88C1309.91 154.613 1307.49 150.693 1305.81 146.12C1304.13 141.547 1303.29 136.507 1303.29 131C1303.29 125.12 1304.27 119.893 1306.23 115.32C1308.19 110.747 1310.89 106.873 1314.35 103.7C1317.89 100.527 1322.05 98.1467 1326.81 96.56C1331.57 94.88 1336.75 94.04 1342.35 94.04C1347.57 94.04 1352.47 94.6467 1357.05 95.86C1361.62 97.0733 1365.12 98.24 1367.55 99.36V124H1352.15V111.12C1349.25 110.467 1346.36 110.14 1343.47 110.14C1340.85 110.14 1338.24 110.56 1335.63 111.4C1333.11 112.147 1330.82 113.407 1328.77 115.18C1326.81 116.86 1325.17 119.007 1323.87 121.62C1322.65 124.233 1322.05 127.36 1322.05 131C1322.05 133.987 1322.56 136.74 1323.59 139.26C1324.61 141.78 1326.06 143.973 1327.93 145.84C1329.79 147.707 1332.08 149.2 1334.79 150.32C1337.59 151.347 1340.67 151.86 1344.03 151.86C1349.35 151.86 1353.69 151.113 1357.05 149.62C1360.5 148.127 1363.07 146.82 1364.75 145.7L1370.77 159.28ZM1394.51 111.4H1380.65V96H1394.51V80.04L1412.71 74.86V96H1449.39V111.4H1412.71V131.42C1412.71 138.607 1414.07 143.833 1416.77 147.1C1419.48 150.273 1423.26 151.86 1428.11 151.86C1430.63 151.86 1432.92 151.58 1434.97 151.02C1437.03 150.367 1438.85 149.573 1440.43 148.64C1442.11 147.707 1443.61 146.68 1444.91 145.56C1446.31 144.44 1447.57 143.413 1448.69 142.48L1457.09 155.08C1455.51 156.947 1453.5 158.673 1451.07 160.26C1448.74 161.753 1446.17 163.107 1443.37 164.32C1440.67 165.44 1437.82 166.327 1434.83 166.98C1431.85 167.633 1428.91 167.96 1426.01 167.96C1415.56 167.96 1407.67 165.067 1402.35 159.28C1397.13 153.4 1394.51 144.113 1394.51 131.42V111.4ZM1470.48 150.6H1495.12V111.4H1470.48V96H1513.32V150.6H1539.22V166H1470.48V150.6ZM1491.76 76.96C1491.76 74.0667 1492.83 71.5933 1494.98 69.54C1497.13 67.4867 1500.11 66.46 1503.94 66.46C1507.86 66.46 1510.99 67.4867 1513.32 69.54C1515.65 71.5933 1516.82 74.0667 1516.82 76.96C1516.82 79.9467 1515.65 82.42 1513.32 84.38C1510.99 86.2467 1507.86 87.18 1503.94 87.18C1500.11 87.18 1497.13 86.2467 1494.98 84.38C1492.83 82.42 1491.76 79.9467 1491.76 76.96ZM1551.06 131C1551.06 125.12 1551.95 119.893 1553.72 115.32C1555.5 110.747 1558.02 106.873 1561.28 103.7C1564.55 100.527 1568.42 98.1467 1572.9 96.56C1577.48 94.88 1582.56 94.04 1588.16 94.04C1594.04 94.04 1599.27 94.9267 1603.84 96.7C1608.51 98.4733 1612.43 100.993 1615.6 104.26C1618.78 107.433 1621.16 111.307 1622.74 115.88C1624.42 120.453 1625.26 125.493 1625.26 131C1625.26 136.88 1624.38 142.107 1622.6 146.68C1620.83 151.253 1618.31 155.127 1615.04 158.3C1611.78 161.473 1607.86 163.9 1603.28 165.58C1598.8 167.167 1593.76 167.96 1588.16 167.96C1582.28 167.96 1577.01 167.073 1572.34 165.3C1567.77 163.527 1563.9 161.053 1560.72 157.88C1557.55 154.613 1555.12 150.693 1553.44 146.12C1551.86 141.547 1551.06 136.507 1551.06 131ZM1569.82 131C1569.82 134.08 1570.24 136.927 1571.08 139.54C1571.92 142.153 1573.14 144.44 1574.72 146.4C1576.31 148.36 1578.22 149.9 1580.46 151.02C1582.7 152.047 1585.27 152.56 1588.16 152.56C1593.58 152.56 1597.96 150.833 1601.32 147.38C1604.78 143.927 1606.5 138.467 1606.5 131C1606.5 124.56 1604.92 119.38 1601.74 115.46C1598.57 111.447 1594.04 109.44 1588.16 109.44C1585.55 109.44 1583.12 109.86 1580.88 110.7C1578.64 111.447 1576.68 112.707 1575 114.48C1573.42 116.253 1572.16 118.493 1571.22 121.2C1570.29 123.907 1569.82 127.173 1569.82 131ZM1631.79 96H1656.29L1658.39 105.24H1658.95C1661.1 102.253 1664.18 99.64 1668.19 97.4C1672.2 95.16 1677.01 94.04 1682.61 94.04C1686.06 94.04 1689.28 94.5067 1692.27 95.44C1695.35 96.3733 1697.96 97.9133 1700.11 100.06C1702.26 102.207 1703.94 105.147 1705.15 108.88C1706.46 112.52 1707.11 117.047 1707.11 122.46V166H1688.91V126.24C1688.91 120.547 1687.6 116.44 1684.99 113.92C1682.47 111.4 1679.25 110.14 1675.33 110.14C1671.88 110.14 1668.7 111.167 1665.81 113.22C1663.01 115.18 1661.1 117.653 1660.07 120.64V166H1641.87V111.4H1631.79V96Z" fill="#666666"/>
<path d="M516.375 150.6H532.335V83.4H518.895V100.34H503.495V68H580.215V100.34H564.815V83.4H551.515V150.6H567.335V166H516.375V150.6ZM658.561 158.58C657.347 159.7 655.761 160.82 653.801 161.94C651.934 162.967 649.694 163.947 647.081 164.88C644.561 165.813 641.761 166.56 638.681 167.12C635.601 167.68 632.334 167.96 628.881 167.96C622.907 167.96 617.541 167.12 612.781 165.44C608.114 163.76 604.147 161.333 600.881 158.16C597.614 154.893 595.094 151.02 593.321 146.54C591.641 141.967 590.801 136.787 590.801 131C590.801 124.84 591.781 119.473 593.741 114.9C595.701 110.233 598.361 106.36 601.721 103.28C605.174 100.2 609.187 97.9133 613.761 96.42C618.334 94.8333 623.281 94.04 628.601 94.04C632.147 94.04 635.787 94.5067 639.521 95.44C643.347 96.3733 646.847 98.0067 650.021 100.34C653.194 102.58 655.761 105.613 657.721 109.44C659.774 113.267 660.801 118.12 660.801 124C660.801 128.013 660.334 132.353 659.401 137.02H609.001C609.094 140.007 609.701 142.527 610.821 144.58C612.034 146.633 613.574 148.313 615.441 149.62C617.401 150.927 619.594 151.907 622.021 152.56C624.541 153.12 627.201 153.4 630.001 153.4C635.601 153.4 640.174 152.747 643.721 151.44C647.361 150.133 650.301 148.547 652.541 146.68L658.561 158.58ZM628.321 108.6C625.894 108.6 623.607 108.927 621.461 109.58C619.314 110.233 617.354 111.213 615.581 112.52C613.901 113.733 612.501 115.273 611.381 117.14C610.261 119.007 609.607 121.107 609.421 123.44H643.861C643.861 118.867 642.554 115.273 639.941 112.66C637.421 109.953 633.547 108.6 628.321 108.6ZM744.186 159.28C740.359 162.173 735.879 164.367 730.746 165.86C725.613 167.26 720.246 167.96 714.646 167.96C708.579 167.96 703.166 167.073 698.406 165.3C693.739 163.527 689.773 161.053 686.506 157.88C683.333 154.613 680.906 150.693 679.226 146.12C677.546 141.547 676.706 136.507 676.706 131C676.706 125.12 677.686 119.893 679.646 115.32C681.606 110.747 684.313 106.873 687.766 103.7C691.313 100.527 695.466 98.1467 700.226 96.56C704.986 94.88 710.166 94.04 715.766 94.04C720.993 94.04 725.893 94.6467 730.466 95.86C735.039 97.0733 738.539 98.24 740.966 99.36V124H725.566V111.12C722.673 110.467 719.779 110.14 716.886 110.14C714.273 110.14 711.659 110.56 709.046 111.4C706.526 112.147 704.239 113.407 702.186 115.18C700.226 116.86 698.593 119.007 697.286 121.62C696.073 124.233 695.466 127.36 695.466 131C695.466 133.987 695.979 136.74 697.006 139.26C698.033 141.78 699.479 143.973 701.346 145.84C703.213 147.707 705.499 149.2 708.206 150.32C711.006 151.347 714.086 151.86 717.446 151.86C722.766 151.86 727.106 151.113 730.466 149.62C733.919 148.127 736.486 146.82 738.166 145.7L744.186 159.28ZM751.691 68H779.971V103.84H780.531C782.771 100.853 785.758 98.4733 789.491 96.7C793.225 94.9267 797.611 94.04 802.651 94.04C806.198 94.04 809.465 94.5067 812.451 95.44C815.438 96.3733 818.005 97.9133 820.151 100.06C822.298 102.207 823.978 105.147 825.191 108.88C826.405 112.52 827.011 117.047 827.011 122.46V166H808.811V126.24C808.811 120.547 807.598 116.44 805.171 113.92C802.745 111.4 799.571 110.14 795.651 110.14C792.198 110.14 789.025 111.213 786.131 113.36C783.238 115.413 781.185 118.073 779.971 121.34V166H761.771V83.4H751.691V68ZM305.036 268.78H316.664V219.82H306.872V232.162H295.652V208.6H351.548V232.162H340.328V219.82H330.638V268.78H342.164V280H305.036V268.78ZM358.138 268.78H370.786V240.22H358.138V229H381.088L382.618 235.732H383.026C384.93 233.488 387.106 231.618 389.554 230.122C392.002 228.626 394.858 227.878 398.122 227.878C402.202 227.878 405.398 229.374 407.71 232.366C410.09 235.358 411.28 240.356 411.28 247.36H399.346C399.346 244.912 398.972 243.144 398.224 242.056C397.544 240.9 396.422 240.322 394.858 240.322C392.138 240.322 389.928 241.002 388.228 242.362C386.596 243.722 385.202 245.286 384.046 247.054V268.78H406.18V280H358.138V268.78ZM424.5 232.468C427.22 231.244 430.348 230.19 433.884 229.306C437.488 228.422 441.738 227.98 446.634 227.98C450.17 227.98 453.162 228.422 455.61 229.306C458.126 230.122 460.132 231.312 461.628 232.876C463.192 234.44 464.314 236.31 464.994 238.486C465.674 240.662 466.014 243.11 466.014 245.83C466.014 249.298 465.878 252.256 465.606 254.704C465.402 257.152 465.3 259.328 465.3 261.232C465.3 262.66 465.368 264.258 465.504 266.026C465.64 266.978 465.742 267.896 465.81 268.78H472.44V280H455.508L454.182 273.064H453.672C452.312 275.172 450.374 277.008 447.858 278.572C445.342 280.068 441.942 280.816 437.658 280.816C432.558 280.816 428.512 279.456 425.52 276.736C422.528 274.016 421.032 270.412 421.032 265.924C421.032 263.068 421.542 260.62 422.562 258.58C423.65 256.472 425.18 254.772 427.152 253.48C429.192 252.12 431.606 251.134 434.394 250.522C437.25 249.842 440.412 249.502 443.88 249.502C445.104 249.502 446.396 249.57 447.756 249.706C449.116 249.842 450.782 249.978 452.754 250.114C452.89 249.434 452.958 248.754 452.958 248.074V246.136C452.958 243.552 452.21 241.716 450.714 240.628C449.218 239.472 447.008 238.894 444.084 238.894C440.616 238.894 437.488 239.336 434.7 240.22C431.912 241.104 429.566 241.988 427.662 242.872L424.5 232.468ZM441.942 269.902C445.206 269.902 447.654 269.324 449.286 268.168C450.918 266.944 452.108 265.652 452.856 264.292V258.172C452.176 258.036 451.156 257.9 449.796 257.764C448.436 257.56 446.974 257.458 445.41 257.458C444.118 257.458 442.826 257.594 441.534 257.866C440.242 258.07 439.086 258.444 438.066 258.988C437.046 259.464 436.23 260.11 435.618 260.926C435.006 261.742 434.7 262.728 434.7 263.884C434.7 265.788 435.244 267.284 436.332 268.372C437.488 269.392 439.358 269.902 441.942 269.902ZM482.498 268.78H500.45V240.22H482.498V229H513.71V268.78H532.58V280H482.498V268.78ZM498.002 215.128C498.002 213.02 498.784 211.218 500.348 209.722C501.912 208.226 504.088 207.478 506.876 207.478C509.732 207.478 512.01 208.226 513.71 209.722C515.41 211.218 516.26 213.02 516.26 215.128C516.26 217.304 515.41 219.106 513.71 220.534C512.01 221.894 509.732 222.574 506.876 222.574C504.088 222.574 501.912 221.894 500.348 220.534C498.784 219.106 498.002 217.304 498.002 215.128ZM538.865 229H556.715L558.245 235.732H558.653C560.217 233.556 562.461 231.652 565.385 230.02C568.309 228.388 571.811 227.572 575.891 227.572C578.407 227.572 580.753 227.912 582.929 228.592C585.173 229.272 587.077 230.394 588.641 231.958C590.205 233.522 591.429 235.664 592.313 238.384C593.265 241.036 593.741 244.334 593.741 248.278V280H580.481V251.032C580.481 246.884 579.529 243.892 577.625 242.056C575.789 240.22 573.443 239.302 570.587 239.302C568.071 239.302 565.759 240.05 563.651 241.546C561.611 242.974 560.217 244.776 559.469 246.952V280H546.209V240.22H538.865V229ZM604.819 268.78H622.771V240.22H604.819V229H636.031V268.78H654.901V280H604.819V268.78ZM620.323 215.128C620.323 213.02 621.105 211.218 622.669 209.722C624.233 208.226 626.409 207.478 629.197 207.478C632.053 207.478 634.331 208.226 636.031 209.722C637.731 211.218 638.581 213.02 638.581 215.128C638.581 217.304 637.731 219.106 636.031 220.534C634.331 221.894 632.053 222.574 629.197 222.574C626.409 222.574 624.233 221.894 622.669 220.534C621.105 219.106 620.323 217.304 620.323 215.128ZM661.185 229H679.035L680.565 235.732H680.973C682.537 233.556 684.781 231.652 687.705 230.02C690.629 228.388 694.131 227.572 698.211 227.572C700.727 227.572 703.073 227.912 705.249 228.592C707.493 229.272 709.397 230.394 710.961 231.958C712.525 233.522 713.749 235.664 714.633 238.384C715.585 241.036 716.061 244.334 716.061 248.278V280H702.801V251.032C702.801 246.884 701.849 243.892 699.945 242.056C698.109 240.22 695.763 239.302 692.907 239.302C690.391 239.302 688.079 240.05 685.971 241.546C683.931 242.974 682.537 244.776 681.789 246.952V280H668.529V240.22H661.185V229ZM775.181 280C775.181 283.672 774.535 286.868 773.243 289.588C772.019 292.308 770.285 294.552 768.041 296.32C765.865 298.156 763.247 299.482 760.187 300.298C757.195 301.182 753.897 301.624 750.293 301.624C747.845 301.624 745.533 301.42 743.357 301.012C741.249 300.672 739.277 300.196 737.441 299.584C735.673 298.972 734.109 298.292 732.749 297.544C731.389 296.864 730.301 296.184 729.485 295.504L734.585 286.12C736.217 287.208 738.155 288.228 740.399 289.18C742.711 290.2 745.601 290.71 749.069 290.71C753.353 290.71 756.617 289.724 758.861 287.752C761.105 285.78 762.227 282.958 762.227 279.286V276.022H761.819C760.595 277.654 758.793 278.878 756.413 279.694C754.033 280.442 751.279 280.816 748.151 280.816C744.887 280.816 741.861 280.306 739.073 279.286C736.353 278.266 733.973 276.736 731.933 274.696C729.893 272.588 728.295 269.936 727.139 266.74C726.051 263.544 725.507 259.804 725.507 255.52C725.507 251.032 726.153 247.054 727.445 243.586C728.805 240.118 730.675 237.228 733.055 234.916C735.503 232.536 738.393 230.768 741.725 229.612C745.125 228.388 748.899 227.776 753.047 227.776C755.223 227.776 757.399 227.878 759.575 228.082C761.751 228.218 763.791 228.422 765.695 228.694C767.667 228.966 769.469 229.306 771.101 229.714C772.733 230.054 774.093 230.428 775.181 230.836V280ZM750.701 270.208C753.285 270.208 755.597 269.63 757.637 268.474C759.745 267.318 761.173 265.584 761.921 263.272V240.322C760.969 239.914 759.609 239.608 757.841 239.404C756.141 239.132 754.509 238.996 752.945 238.996C751.041 238.996 749.239 239.302 747.539 239.914C745.907 240.526 744.445 241.512 743.153 242.872C741.929 244.164 740.943 245.83 740.195 247.87C739.515 249.842 739.175 252.222 739.175 255.01C739.175 257.458 739.481 259.634 740.093 261.538C740.705 263.442 741.555 265.04 742.643 266.332C743.731 267.624 744.955 268.61 746.315 269.29C747.675 269.902 749.137 270.208 750.701 270.208ZM823.285 265.924C823.285 264.564 822.435 263.476 820.735 262.66C819.103 261.844 817.063 261.096 814.615 260.416C812.167 259.736 809.481 259.056 806.557 258.376C803.633 257.628 800.947 256.642 798.499 255.418C796.051 254.126 793.977 252.528 792.277 250.624C790.645 248.652 789.829 246.136 789.829 243.076C789.829 240.56 790.373 238.35 791.461 236.446C792.617 234.542 794.147 232.944 796.051 231.652C798.023 230.292 800.335 229.272 802.987 228.592C805.707 227.912 808.631 227.572 811.759 227.572C815.091 227.572 818.015 227.81 820.531 228.286C823.047 228.762 825.223 229.34 827.059 230.02C828.963 230.7 830.561 231.482 831.853 232.366C833.213 233.182 834.369 233.93 835.321 234.61L829.711 243.688C828.691 243.076 827.501 242.464 826.141 241.852C824.849 241.172 823.455 240.56 821.959 240.016C820.531 239.472 819.001 239.03 817.369 238.69C815.805 238.35 814.241 238.18 812.677 238.18C809.821 238.18 807.509 238.554 805.741 239.302C803.973 240.05 803.089 241.206 803.089 242.77C803.089 243.994 803.905 244.98 805.537 245.728C807.237 246.476 809.311 247.19 811.759 247.87C814.207 248.482 816.893 249.162 819.817 249.91C822.741 250.658 825.427 251.644 827.875 252.868C830.323 254.024 832.363 255.554 833.995 257.458C835.695 259.362 836.545 261.81 836.545 264.802C836.545 269.97 834.641 274.05 830.833 277.042C827.093 279.966 821.517 281.428 814.105 281.428C808.257 281.428 803.191 280.578 798.907 278.878C794.691 277.11 791.291 275.07 788.707 272.758L794.827 263.17C795.711 263.918 796.867 264.768 798.295 265.72C799.791 266.604 801.457 267.42 803.293 268.168C805.129 268.916 807.067 269.562 809.107 270.106C811.215 270.582 813.289 270.82 815.329 270.82C817.505 270.82 819.375 270.446 820.939 269.698C822.503 268.95 823.285 267.692 823.285 265.924Z" fill="#3D8F99"/>
<defs>
<clipPath id="clip0_7233_17993">
<rect width="238" height="238" fill="white"/>
</clipPath>
</defs>
</svg>
