<svg width="1810" height="305" viewBox="0 0 1810 305" fill="none" xmlns="http://www.w3.org/2000/svg">
<g clip-path="url(#clip0_7233_17993)">
<path fill-rule="evenodd" clip-rule="evenodd" d="M62.0871 57.3589C60.0791 59.2805 59.6129 62.3104 60.9747 64.6692C61.922 66.31 63.5928 67.3471 65.4203 67.5645C66.4678 66.9081 67.5312 66.268 68.6105 65.6449C69.6912 65.0209 70.7786 64.4192 71.8723 63.8396C72.5978 62.1482 72.5351 60.1826 71.5878 58.5417C70.226 56.1831 67.369 55.0718 64.7009 55.8499C64.2619 56.0956 63.8238 56.3447 63.3868 56.597C62.9512 56.8485 62.518 57.1024 62.0871 57.3589ZM48.9302 66.5173C49.3225 67.9209 49.8961 69.2999 50.6606 70.624C51.731 72.478 53.0816 74.0617 54.6275 75.3563C35.5481 91.1405 23.4296 113.023 19.4973 136.432C16.1883 135.209 12.5333 134.965 9.01345 135.808C13.2163 109.167 27.0136 84.235 48.9302 66.5173ZM79.2111 49.0355C80.2303 50.0769 81.1375 51.263 81.9019 52.5869C82.9724 54.4411 83.6687 56.4029 84.0168 58.3893C107.14 49.7914 132.05 50.2035 154.227 58.4144C154.873 54.9425 156.54 51.6731 159.078 49.0779C133.93 39.4325 105.479 38.9286 79.2111 49.0355ZM173.102 55.6021C174.31 56.2698 175.508 56.9605 176.693 57.6741C176.891 57.9153 177.071 58.1747 177.23 58.4512C178.835 61.2297 177.902 64.9394 174.901 66.672C174.179 67.0892 173.417 67.3452 172.654 67.4547C170.554 66.1446 168.411 64.9149 166.23 63.7668C165.208 61.1154 166.23 57.9264 168.947 56.3579C170.278 55.5889 171.744 55.3676 173.102 55.6021ZM183.417 75.201C186.223 72.8631 188.195 69.7828 189.188 66.4216C199.543 74.7894 208.563 85.1675 215.618 97.3871C222.673 109.607 227.15 122.607 229.22 135.759C225.812 134.938 222.159 135.106 218.731 136.367C216.788 124.796 212.781 113.37 206.57 102.611C200.358 91.8524 192.466 82.669 183.417 75.201ZM220.04 156.969C220.136 154.505 220.143 152.034 220.058 149.561C220.534 148.955 221.137 148.423 221.86 148.006C224.861 146.273 228.539 147.321 230.144 150.099C230.303 150.376 230.438 150.662 230.548 150.954C230.573 152.337 230.573 153.719 230.547 155.099C230.071 156.393 229.146 157.551 227.814 158.32C225.098 159.889 221.825 159.179 220.04 156.969ZM218.674 170.04C214.703 193.312 202.638 215.057 183.685 230.777C185.238 232.075 186.595 233.663 187.669 235.524C188.43 236.842 189.001 238.213 189.394 239.609C211.219 221.919 224.971 197.066 229.185 170.506C225.668 171.407 222.003 171.216 218.674 170.04ZM176.249 248.784C175.778 249.065 175.304 249.343 174.828 249.618C174.431 249.847 174.034 250.073 173.636 250.296C170.966 251.079 168.105 249.967 166.742 247.607C165.796 245.968 165.732 244.006 166.455 242.316C167.51 241.755 168.56 241.173 169.604 240.57C170.72 239.926 171.82 239.263 172.902 238.583C174.732 238.798 176.407 239.836 177.355 241.479C178.716 243.836 178.252 246.862 176.249 248.784ZM154.317 247.781C154.666 249.76 155.361 251.714 156.428 253.561C157.196 254.892 158.109 256.084 159.135 257.129C132.797 267.301 104.256 266.797 79.0418 257.101C81.5317 254.474 83.1484 251.187 83.7435 247.71C106.019 256.023 131.075 256.457 154.317 247.781ZM65.7499 238.878C67.6377 240.051 69.5605 241.158 71.5147 242.199C72.8189 244.925 71.838 248.373 68.9773 250.025C67.8859 250.655 66.7047 250.917 65.5664 250.863C63.955 249.982 62.3636 249.061 60.7937 248.099C60.7594 248.044 60.7259 247.988 60.6933 247.932C59.0892 245.153 60.0215 241.443 63.0225 239.711C63.8968 239.206 64.8286 238.937 65.7499 238.878ZM54.7549 230.979C45.7232 223.517 37.8462 214.346 31.6445 203.604C25.4427 192.862 21.4386 181.455 19.4924 169.902C16.0882 171.224 12.4458 171.455 9.03326 170.7C11.1192 183.768 15.5852 196.684 22.5966 208.828C29.608 220.972 38.56 231.297 48.8348 239.638C49.887 236.305 51.9085 233.266 54.7549 230.979ZM7.68559 156.113C7.7161 156.17 7.74764 156.227 7.78023 156.283C9.38438 159.062 13.0633 160.109 16.0642 158.377C16.9385 157.872 17.6372 157.199 18.1488 156.431C18.0776 154.21 18.0801 151.991 18.1552 149.778C16.4469 147.286 12.9701 146.411 10.1093 148.063C9.01792 148.693 8.20012 149.584 7.67845 150.598C7.63535 152.433 7.63758 154.272 7.68559 156.113Z" fill="#666666"/>
<path d="M76.7448 55.5643C80.0336 61.2606 78.015 68.5831 72.2361 71.9196C66.4572 75.256 59.1064 73.3429 55.8176 67.6466C52.5289 61.9503 54.5475 54.6278 60.3264 51.2914C66.1053 47.9549 73.456 49.868 76.7448 55.5643Z" fill="#666666"/>
<path d="M76.4636 238.827C79.7523 244.523 77.7337 251.845 71.9548 255.182C66.1759 258.518 58.8252 256.605 55.5364 250.909C52.2476 245.213 54.2662 237.89 60.0451 234.554C65.824 231.217 73.1748 233.13 76.4636 238.827Z" fill="#666666"/>
<path d="M235.301 147.122C238.589 152.818 236.571 160.141 230.792 163.477C225.013 166.814 217.662 164.901 214.374 159.204C211.085 153.508 213.103 146.185 218.882 142.849C224.661 139.513 232.012 141.426 235.301 147.122Z" fill="#666666"/>
<path d="M23.5505 147.178C26.8392 152.874 24.8206 160.197 19.0417 163.533C13.2629 166.87 5.91208 164.957 2.62331 159.26C-0.665466 153.564 1.35316 146.242 7.13204 142.905C12.9109 139.569 20.2617 141.482 23.5505 147.178Z" fill="#666666"/>
<path d="M182.512 238.501C185.801 244.198 183.783 251.52 178.004 254.857C172.225 258.193 164.874 256.28 161.585 250.584C158.296 244.887 160.315 237.565 166.094 234.228C171.873 230.892 179.224 232.805 182.512 238.501Z" fill="#666666"/>
<path d="M182.388 55.4735C185.676 61.1698 183.658 68.4923 177.879 71.8288C172.1 75.1652 164.749 73.2521 161.46 67.5558C158.172 61.8595 160.19 54.537 165.969 51.2005C171.748 47.8641 179.099 49.7772 182.388 55.4735Z" fill="#666666"/>
<path d="M88.242 181.256L60.9565 154.329L88.462 130.096L94.8433 141.136L79.2202 154.868L95.0634 170.755L88.242 181.256Z" fill="#666666"/>
<path d="M149.634 181.256L142.813 170.755L158.656 154.868L143.033 141.136L149.414 130.096L176.92 154.329L149.634 181.256Z" fill="#666666"/>
<path d="M137.383 115.517L126.471 110.923L102.052 197.126L112.965 201.72L137.383 115.517Z" fill="#666666"/>
</g>
<path d="M309.52 131.6H325.48V64.4H312.04V81.34H296.64V49H373.36V81.34H357.96V64.4H344.66V131.6H360.48V147H309.52V131.6ZM451.705 139.58C450.492 140.7 448.905 141.82 446.945 142.94C445.079 143.967 442.839 144.947 440.225 145.88C437.705 146.813 434.905 147.56 431.825 148.12C428.745 148.68 425.479 148.96 422.025 148.96C416.052 148.96 410.685 148.12 405.925 146.44C401.259 144.76 397.292 142.333 394.025 139.16C390.759 135.893 388.239 132.02 386.465 127.54C384.785 122.967 383.945 117.787 383.945 112C383.945 105.84 384.925 100.473 386.885 95.9C388.845 91.2333 391.505 87.36 394.865 84.28C398.319 81.2 402.332 78.9133 406.905 77.42C411.479 75.8333 416.425 75.04 421.745 75.04C425.292 75.04 428.932 75.5067 432.665 76.44C436.492 77.3733 439.992 79.0067 443.165 81.34C446.339 83.58 448.905 86.6133 450.865 90.44C452.919 94.2667 453.945 99.12 453.945 105C453.945 109.013 453.479 113.353 452.545 118.02H402.145C402.239 121.007 402.845 123.527 403.965 125.58C405.179 127.633 406.719 129.313 408.585 130.62C410.545 131.927 412.739 132.907 415.165 133.56C417.685 134.12 420.345 134.4 423.145 134.4C428.745 134.4 433.319 133.747 436.865 132.44C440.505 131.133 443.445 129.547 445.685 127.68L451.705 139.58ZM421.465 89.6C419.039 89.6 416.752 89.9267 414.605 90.58C412.459 91.2333 410.499 92.2133 408.725 93.52C407.045 94.7333 405.645 96.2733 404.525 98.14C403.405 100.007 402.752 102.107 402.565 104.44H437.005C437.005 99.8667 435.699 96.2733 433.085 93.66C430.565 90.9533 426.692 89.6 421.465 89.6ZM537.331 140.28C533.504 143.173 529.024 145.367 523.891 146.86C518.757 148.26 513.391 148.96 507.791 148.96C501.724 148.96 496.311 148.073 491.551 146.3C486.884 144.527 482.917 142.053 479.651 138.88C476.477 135.613 474.051 131.693 472.371 127.12C470.691 122.547 469.851 117.507 469.851 112C469.851 106.12 470.831 100.893 472.791 96.32C474.751 91.7467 477.457 87.8733 480.911 84.7C484.457 81.5267 488.611 79.1467 493.371 77.56C498.131 75.88 503.311 75.04 508.911 75.04C514.137 75.04 519.037 75.6467 523.611 76.86C528.184 78.0733 531.684 79.24 534.111 80.36V105H518.711V92.12C515.817 91.4667 512.924 91.14 510.031 91.14C507.417 91.14 504.804 91.56 502.191 92.4C499.671 93.1467 497.384 94.4067 495.331 96.18C493.371 97.86 491.737 100.007 490.431 102.62C489.217 105.233 488.611 108.36 488.611 112C488.611 114.987 489.124 117.74 490.151 120.26C491.177 122.78 492.624 124.973 494.491 126.84C496.357 128.707 498.644 130.2 501.351 131.32C504.151 132.347 507.231 132.86 510.591 132.86C515.911 132.86 520.251 132.113 523.611 130.62C527.064 129.127 529.631 127.82 531.311 126.7L537.331 140.28ZM544.836 49H573.116V84.84H573.676C575.916 81.8533 578.903 79.4733 582.636 77.7C586.369 75.9267 590.756 75.04 595.796 75.04C599.343 75.04 602.609 75.5067 605.596 76.44C608.583 77.3733 611.149 78.9133 613.296 81.06C615.443 83.2067 617.123 86.1467 618.336 89.88C619.549 93.52 620.156 98.0467 620.156 103.46V147H601.956V107.24C601.956 101.547 600.743 97.44 598.316 94.92C595.889 92.4 592.716 91.14 588.796 91.14C585.343 91.14 582.169 92.2133 579.276 94.36C576.383 96.4133 574.329 99.0733 573.116 102.34V147H554.916V64.4H544.836V49ZM305.036 249.78H316.664V200.82H306.872V213.162H295.652V189.6H351.548V213.162H340.328V200.82H330.638V249.78H342.164V261H305.036V249.78ZM358.138 249.78H370.786V221.22H358.138V210H381.088L382.618 216.732H383.026C384.93 214.488 387.106 212.618 389.554 211.122C392.002 209.626 394.858 208.878 398.122 208.878C402.202 208.878 405.398 210.374 407.71 213.366C410.09 216.358 411.28 221.356 411.28 228.36H399.346C399.346 225.912 398.972 224.144 398.224 223.056C397.544 221.9 396.422 221.322 394.858 221.322C392.138 221.322 389.928 222.002 388.228 223.362C386.596 224.722 385.202 226.286 384.046 228.054V249.78H406.18V261H358.138V249.78ZM424.5 213.468C427.22 212.244 430.348 211.19 433.884 210.306C437.488 209.422 441.738 208.98 446.634 208.98C450.17 208.98 453.162 209.422 455.61 210.306C458.126 211.122 460.132 212.312 461.628 213.876C463.192 215.44 464.314 217.31 464.994 219.486C465.674 221.662 466.014 224.11 466.014 226.83C466.014 230.298 465.878 233.256 465.606 235.704C465.402 238.152 465.3 240.328 465.3 242.232C465.3 243.66 465.368 245.258 465.504 247.026C465.64 247.978 465.742 248.896 465.81 249.78H472.44V261H455.508L454.182 254.064H453.672C452.312 256.172 450.374 258.008 447.858 259.572C445.342 261.068 441.942 261.816 437.658 261.816C432.558 261.816 428.512 260.456 425.52 257.736C422.528 255.016 421.032 251.412 421.032 246.924C421.032 244.068 421.542 241.62 422.562 239.58C423.65 237.472 425.18 235.772 427.152 234.48C429.192 233.12 431.606 232.134 434.394 231.522C437.25 230.842 440.412 230.502 443.88 230.502C445.104 230.502 446.396 230.57 447.756 230.706C449.116 230.842 450.782 230.978 452.754 231.114C452.89 230.434 452.958 229.754 452.958 229.074V227.136C452.958 224.552 452.21 222.716 450.714 221.628C449.218 220.472 447.008 219.894 444.084 219.894C440.616 219.894 437.488 220.336 434.7 221.22C431.912 222.104 429.566 222.988 427.662 223.872L424.5 213.468ZM441.942 250.902C445.206 250.902 447.654 250.324 449.286 249.168C450.918 247.944 452.108 246.652 452.856 245.292V239.172C452.176 239.036 451.156 238.9 449.796 238.764C448.436 238.56 446.974 238.458 445.41 238.458C444.118 238.458 442.826 238.594 441.534 238.866C440.242 239.07 439.086 239.444 438.066 239.988C437.046 240.464 436.23 241.11 435.618 241.926C435.006 242.742 434.7 243.728 434.7 244.884C434.7 246.788 435.244 248.284 436.332 249.372C437.488 250.392 439.358 250.902 441.942 250.902ZM482.498 249.78H500.45V221.22H482.498V210H513.71V249.78H532.58V261H482.498V249.78ZM498.002 196.128C498.002 194.02 498.784 192.218 500.348 190.722C501.912 189.226 504.088 188.478 506.876 188.478C509.732 188.478 512.01 189.226 513.71 190.722C515.41 192.218 516.26 194.02 516.26 196.128C516.26 198.304 515.41 200.106 513.71 201.534C512.01 202.894 509.732 203.574 506.876 203.574C504.088 203.574 501.912 202.894 500.348 201.534C498.784 200.106 498.002 198.304 498.002 196.128ZM538.865 210H556.715L558.245 216.732H558.653C560.217 214.556 562.461 212.652 565.385 211.02C568.309 209.388 571.811 208.572 575.891 208.572C578.407 208.572 580.753 208.912 582.929 209.592C585.173 210.272 587.077 211.394 588.641 212.958C590.205 214.522 591.429 216.664 592.313 219.384C593.265 222.036 593.741 225.334 593.741 229.278V261H580.481V232.032C580.481 227.884 579.529 224.892 577.625 223.056C575.789 221.22 573.443 220.302 570.587 220.302C568.071 220.302 565.759 221.05 563.651 222.546C561.611 223.974 560.217 225.776 559.469 227.952V261H546.209V221.22H538.865V210ZM604.819 249.78H622.771V221.22H604.819V210H636.031V249.78H654.901V261H604.819V249.78ZM620.323 196.128C620.323 194.02 621.105 192.218 622.669 190.722C624.233 189.226 626.409 188.478 629.197 188.478C632.053 188.478 634.331 189.226 636.031 190.722C637.731 192.218 638.581 194.02 638.581 196.128C638.581 198.304 637.731 200.106 636.031 201.534C634.331 202.894 632.053 203.574 629.197 203.574C626.409 203.574 624.233 202.894 622.669 201.534C621.105 200.106 620.323 198.304 620.323 196.128ZM661.185 210H679.035L680.565 216.732H680.973C682.537 214.556 684.781 212.652 687.705 211.02C690.629 209.388 694.131 208.572 698.211 208.572C700.727 208.572 703.073 208.912 705.249 209.592C707.493 210.272 709.397 211.394 710.961 212.958C712.525 214.522 713.749 216.664 714.633 219.384C715.585 222.036 716.061 225.334 716.061 229.278V261H702.801V232.032C702.801 227.884 701.849 224.892 699.945 223.056C698.109 221.22 695.763 220.302 692.907 220.302C690.391 220.302 688.079 221.05 685.971 222.546C683.931 223.974 682.537 225.776 681.789 227.952V261H668.529V221.22H661.185V210ZM775.181 261C775.181 264.672 774.535 267.868 773.243 270.588C772.019 273.308 770.285 275.552 768.041 277.32C765.865 279.156 763.247 280.482 760.187 281.298C757.195 282.182 753.897 282.624 750.293 282.624C747.845 282.624 745.533 282.42 743.357 282.012C741.249 281.672 739.277 281.196 737.441 280.584C735.673 279.972 734.109 279.292 732.749 278.544C731.389 277.864 730.301 277.184 729.485 276.504L734.585 267.12C736.217 268.208 738.155 269.228 740.399 270.18C742.711 271.2 745.601 271.71 749.069 271.71C753.353 271.71 756.617 270.724 758.861 268.752C761.105 266.78 762.227 263.958 762.227 260.286V257.022H761.819C760.595 258.654 758.793 259.878 756.413 260.694C754.033 261.442 751.279 261.816 748.151 261.816C744.887 261.816 741.861 261.306 739.073 260.286C736.353 259.266 733.973 257.736 731.933 255.696C729.893 253.588 728.295 250.936 727.139 247.74C726.051 244.544 725.507 240.804 725.507 236.52C725.507 232.032 726.153 228.054 727.445 224.586C728.805 221.118 730.675 218.228 733.055 215.916C735.503 213.536 738.393 211.768 741.725 210.612C745.125 209.388 748.899 208.776 753.047 208.776C755.223 208.776 757.399 208.878 759.575 209.082C761.751 209.218 763.791 209.422 765.695 209.694C767.667 209.966 769.469 210.306 771.101 210.714C772.733 211.054 774.093 211.428 775.181 211.836V261ZM750.701 251.208C753.285 251.208 755.597 250.63 757.637 249.474C759.745 248.318 761.173 246.584 761.921 244.272V221.322C760.969 220.914 759.609 220.608 757.841 220.404C756.141 220.132 754.509 219.996 752.945 219.996C751.041 219.996 749.239 220.302 747.539 220.914C745.907 221.526 744.445 222.512 743.153 223.872C741.929 225.164 740.943 226.83 740.195 228.87C739.515 230.842 739.175 233.222 739.175 236.01C739.175 238.458 739.481 240.634 740.093 242.538C740.705 244.442 741.555 246.04 742.643 247.332C743.731 248.624 744.955 249.61 746.315 250.29C747.675 250.902 749.137 251.208 750.701 251.208ZM823.285 246.924C823.285 245.564 822.435 244.476 820.735 243.66C819.103 242.844 817.063 242.096 814.615 241.416C812.167 240.736 809.481 240.056 806.557 239.376C803.633 238.628 800.947 237.642 798.499 236.418C796.051 235.126 793.977 233.528 792.277 231.624C790.645 229.652 789.829 227.136 789.829 224.076C789.829 221.56 790.373 219.35 791.461 217.446C792.617 215.542 794.147 213.944 796.051 212.652C798.023 211.292 800.335 210.272 802.987 209.592C805.707 208.912 808.631 208.572 811.759 208.572C815.091 208.572 818.015 208.81 820.531 209.286C823.047 209.762 825.223 210.34 827.059 211.02C828.963 211.7 830.561 212.482 831.853 213.366C833.213 214.182 834.369 214.93 835.321 215.61L829.711 224.688C828.691 224.076 827.501 223.464 826.141 222.852C824.849 222.172 823.455 221.56 821.959 221.016C820.531 220.472 819.001 220.03 817.369 219.69C815.805 219.35 814.241 219.18 812.677 219.18C809.821 219.18 807.509 219.554 805.741 220.302C803.973 221.05 803.089 222.206 803.089 223.77C803.089 224.994 803.905 225.98 805.537 226.728C807.237 227.476 809.311 228.19 811.759 228.87C814.207 229.482 816.893 230.162 819.817 230.91C822.741 231.658 825.427 232.644 827.875 233.868C830.323 235.024 832.363 236.554 833.995 238.458C835.695 240.362 836.545 242.81 836.545 245.802C836.545 250.97 834.641 255.05 830.833 258.042C827.093 260.966 821.517 262.428 814.105 262.428C808.257 262.428 803.191 261.578 798.907 259.878C794.691 258.11 791.291 256.07 788.707 253.758L794.827 244.17C795.711 244.918 796.867 245.768 798.295 246.72C799.791 247.604 801.457 248.42 803.293 249.168C805.129 249.916 807.067 250.562 809.107 251.106C811.215 251.582 813.289 251.82 815.329 251.82C817.505 251.82 819.375 251.446 820.939 250.698C822.503 249.95 823.285 248.692 823.285 246.924Z" fill="#3D8F99"/>
<path d="M729.906 114.1H745.306V142.1C742.319 144.247 738.493 145.927 733.826 147.14C729.253 148.353 724.539 148.96 719.686 148.96C713.526 148.96 707.646 148.073 702.046 146.3C696.539 144.433 691.686 141.493 687.486 137.48C683.286 133.373 679.926 128.1 677.406 121.66C674.886 115.127 673.626 107.24 673.626 98C673.626 88.3867 675.026 80.36 677.826 73.92C680.719 67.3867 684.406 62.16 688.886 58.24C693.366 54.2267 698.359 51.38 703.866 49.7C709.373 47.9267 714.786 47.04 720.106 47.04C725.706 47.04 730.419 47.5067 734.246 48.44C738.166 49.3733 741.386 50.4467 743.906 51.66V80.78H728.506V64.82C725.613 64.3533 722.626 64.12 719.546 64.12C715.906 64.12 712.499 64.82 709.326 66.22C706.246 67.5267 703.539 69.58 701.206 72.38C698.873 75.18 697.053 78.7267 695.746 83.02C694.439 87.22 693.786 92.2133 693.786 98C693.786 103.04 694.393 107.66 695.606 111.86C696.819 115.967 698.593 119.513 700.926 122.5C703.259 125.487 706.106 127.82 709.466 129.5C712.826 131.087 716.653 131.88 720.946 131.88C724.026 131.88 727.013 131.6 729.906 131.04V114.1ZM756.591 112C756.591 106.12 757.478 100.893 759.251 96.32C761.025 91.7467 763.545 87.8733 766.811 84.7C770.078 81.5267 773.951 79.1467 778.431 77.56C783.005 75.88 788.091 75.04 793.691 75.04C799.571 75.04 804.798 75.9267 809.371 77.7C814.038 79.4733 817.958 81.9933 821.131 85.26C824.305 88.4333 826.685 92.3067 828.271 96.88C829.951 101.453 830.791 106.493 830.791 112C830.791 117.88 829.905 123.107 828.131 127.68C826.358 132.253 823.838 136.127 820.571 139.3C817.305 142.473 813.385 144.9 808.811 146.58C804.331 148.167 799.291 148.96 793.691 148.96C787.811 148.96 782.538 148.073 777.871 146.3C773.298 144.527 769.425 142.053 766.251 138.88C763.078 135.613 760.651 131.693 758.971 127.12C757.385 122.547 756.591 117.507 756.591 112ZM775.351 112C775.351 115.08 775.771 117.927 776.611 120.54C777.451 123.153 778.665 125.44 780.251 127.4C781.838 129.36 783.751 130.9 785.991 132.02C788.231 133.047 790.798 133.56 793.691 133.56C799.105 133.56 803.491 131.833 806.851 128.38C810.305 124.927 812.031 119.467 812.031 112C812.031 105.56 810.445 100.38 807.271 96.46C804.098 92.4467 799.571 90.44 793.691 90.44C791.078 90.44 788.651 90.86 786.411 91.7C784.171 92.4467 782.211 93.7067 780.531 95.48C778.945 97.2533 777.685 99.4933 776.751 102.2C775.818 104.907 775.351 108.173 775.351 112ZM837.317 77H861.817L863.917 86.24H864.477C866.623 83.2533 869.703 80.64 873.717 78.4C877.73 76.16 882.537 75.04 888.137 75.04C891.59 75.04 894.81 75.5067 897.797 76.44C900.877 77.3733 903.49 78.9133 905.637 81.06C907.783 83.2067 909.463 86.1467 910.677 89.88C911.983 93.52 912.637 98.0467 912.637 103.46V147H894.437V107.24C894.437 101.547 893.13 97.44 890.517 94.92C887.997 92.4 884.777 91.14 880.857 91.14C877.403 91.14 874.23 92.1667 871.337 94.22C868.537 96.18 866.623 98.6533 865.597 101.64V147H847.397V92.4H837.317V77ZM921.262 77H945.762L947.862 86.24H948.422C950.569 83.2533 953.649 80.64 957.662 78.4C961.675 76.16 966.482 75.04 972.082 75.04C975.535 75.04 978.755 75.5067 981.742 76.44C984.822 77.3733 987.435 78.9133 989.582 81.06C991.729 83.2067 993.409 86.1467 994.622 89.88C995.929 93.52 996.582 98.0467 996.582 103.46V147H978.382V107.24C978.382 101.547 977.075 97.44 974.462 94.92C971.942 92.4 968.722 91.14 964.802 91.14C961.349 91.14 958.175 92.1667 955.282 94.22C952.482 96.18 950.569 98.6533 949.542 101.64V147H931.342V92.4H921.262V77ZM1078.29 139.58C1077.07 140.7 1075.49 141.82 1073.53 142.94C1071.66 143.967 1069.42 144.947 1066.81 145.88C1064.29 146.813 1061.49 147.56 1058.41 148.12C1055.33 148.68 1052.06 148.96 1048.61 148.96C1042.63 148.96 1037.27 148.12 1032.51 146.44C1027.84 144.76 1023.87 142.333 1020.61 139.16C1017.34 135.893 1014.82 132.02 1013.05 127.54C1011.37 122.967 1010.53 117.787 1010.53 112C1010.53 105.84 1011.51 100.473 1013.47 95.9C1015.43 91.2333 1018.09 87.36 1021.45 84.28C1024.9 81.2 1028.91 78.9133 1033.49 77.42C1038.06 75.8333 1043.01 75.04 1048.33 75.04C1051.87 75.04 1055.51 75.5067 1059.25 76.44C1063.07 77.3733 1066.57 79.0067 1069.75 81.34C1072.92 83.58 1075.49 86.6133 1077.45 90.44C1079.5 94.2667 1080.53 99.12 1080.53 105C1080.53 109.013 1080.06 113.353 1079.13 118.02H1028.73C1028.82 121.007 1029.43 123.527 1030.55 125.58C1031.76 127.633 1033.3 129.313 1035.17 130.62C1037.13 131.927 1039.32 132.907 1041.75 133.56C1044.27 134.12 1046.93 134.4 1049.73 134.4C1055.33 134.4 1059.9 133.747 1063.45 132.44C1067.09 131.133 1070.03 129.547 1072.27 127.68L1078.29 139.58ZM1048.05 89.6C1045.62 89.6 1043.33 89.9267 1041.19 90.58C1039.04 91.2333 1037.08 92.2133 1035.31 93.52C1033.63 94.7333 1032.23 96.2733 1031.11 98.14C1029.99 100.007 1029.33 102.107 1029.15 104.44H1063.59C1063.59 99.8667 1062.28 96.2733 1059.67 93.66C1057.15 90.9533 1053.27 89.6 1048.05 89.6ZM1163.91 140.28C1160.09 143.173 1155.61 145.367 1150.47 146.86C1145.34 148.26 1139.97 148.96 1134.37 148.96C1128.31 148.96 1122.89 148.073 1118.13 146.3C1113.47 144.527 1109.5 142.053 1106.23 138.88C1103.06 135.613 1100.63 131.693 1098.95 127.12C1097.27 122.547 1096.43 117.507 1096.43 112C1096.43 106.12 1097.41 100.893 1099.37 96.32C1101.33 91.7467 1104.04 87.8733 1107.49 84.7C1111.04 81.5267 1115.19 79.1467 1119.95 77.56C1124.71 75.88 1129.89 75.04 1135.49 75.04C1140.72 75.04 1145.62 75.6467 1150.19 76.86C1154.77 78.0733 1158.27 79.24 1160.69 80.36V105H1145.29V92.12C1142.4 91.4667 1139.51 91.14 1136.61 91.14C1134 91.14 1131.39 91.56 1128.77 92.4C1126.25 93.1467 1123.97 94.4067 1121.91 96.18C1119.95 97.86 1118.32 100.007 1117.01 102.62C1115.8 105.233 1115.19 108.36 1115.19 112C1115.19 114.987 1115.71 117.74 1116.73 120.26C1117.76 122.78 1119.21 124.973 1121.07 126.84C1122.94 128.707 1125.23 130.2 1127.93 131.32C1130.73 132.347 1133.81 132.86 1137.17 132.86C1142.49 132.86 1146.83 132.113 1150.19 130.62C1153.65 129.127 1156.21 127.82 1157.89 126.7L1163.91 140.28ZM1187.66 92.4H1173.8V77H1187.66V61.04L1205.86 55.86V77H1242.54V92.4H1205.86V112.42C1205.86 119.607 1207.21 124.833 1209.92 128.1C1212.62 131.273 1216.4 132.86 1221.26 132.86C1223.78 132.86 1226.06 132.58 1228.12 132.02C1230.17 131.367 1231.99 130.573 1233.58 129.64C1235.26 128.707 1236.75 127.68 1238.06 126.56C1239.46 125.44 1240.72 124.413 1241.84 123.48L1250.24 136.08C1248.65 137.947 1246.64 139.673 1244.22 141.26C1241.88 142.753 1239.32 144.107 1236.52 145.32C1233.81 146.44 1230.96 147.327 1227.98 147.98C1224.99 148.633 1222.05 148.96 1219.16 148.96C1208.7 148.96 1200.82 146.067 1195.5 140.28C1190.27 134.4 1187.66 125.113 1187.66 112.42V92.4ZM1263.62 131.6H1288.26V92.4H1263.62V77H1306.46V131.6H1332.36V147H1263.62V131.6ZM1284.9 57.96C1284.9 55.0667 1285.98 52.5933 1288.12 50.54C1290.27 48.4867 1293.26 47.46 1297.08 47.46C1301 47.46 1304.13 48.4867 1306.46 50.54C1308.8 52.5933 1309.96 55.0667 1309.96 57.96C1309.96 60.9467 1308.8 63.42 1306.46 65.38C1304.13 67.2467 1301 68.18 1297.08 68.18C1293.26 68.18 1290.27 67.2467 1288.12 65.38C1285.98 63.42 1284.9 60.9467 1284.9 57.96ZM1344.21 112C1344.21 106.12 1345.1 100.893 1346.87 96.32C1348.64 91.7467 1351.16 87.8733 1354.43 84.7C1357.7 81.5267 1361.57 79.1467 1366.05 77.56C1370.62 75.88 1375.71 75.04 1381.31 75.04C1387.19 75.04 1392.42 75.9267 1396.99 77.7C1401.66 79.4733 1405.58 81.9933 1408.75 85.26C1411.92 88.4333 1414.3 92.3067 1415.89 96.88C1417.57 101.453 1418.41 106.493 1418.41 112C1418.41 117.88 1417.52 123.107 1415.75 127.68C1413.98 132.253 1411.46 136.127 1408.19 139.3C1404.92 142.473 1401 144.9 1396.43 146.58C1391.95 148.167 1386.91 148.96 1381.31 148.96C1375.43 148.96 1370.16 148.073 1365.49 146.3C1360.92 144.527 1357.04 142.053 1353.87 138.88C1350.7 135.613 1348.27 131.693 1346.59 127.12C1345 122.547 1344.21 117.507 1344.21 112ZM1362.97 112C1362.97 115.08 1363.39 117.927 1364.23 120.54C1365.07 123.153 1366.28 125.44 1367.87 127.4C1369.46 129.36 1371.37 130.9 1373.61 132.02C1375.85 133.047 1378.42 133.56 1381.31 133.56C1386.72 133.56 1391.11 131.833 1394.47 128.38C1397.92 124.927 1399.65 119.467 1399.65 112C1399.65 105.56 1398.06 100.38 1394.89 96.46C1391.72 92.4467 1387.19 90.44 1381.31 90.44C1378.7 90.44 1376.27 90.86 1374.03 91.7C1371.79 92.4467 1369.83 93.7067 1368.15 95.48C1366.56 97.2533 1365.3 99.4933 1364.37 102.2C1363.44 104.907 1362.97 108.173 1362.97 112ZM1424.93 77H1449.43L1451.53 86.24H1452.09C1454.24 83.2533 1457.32 80.64 1461.33 78.4C1465.35 76.16 1470.15 75.04 1475.75 75.04C1479.21 75.04 1482.43 75.5067 1485.41 76.44C1488.49 77.3733 1491.11 78.9133 1493.25 81.06C1495.4 83.2067 1497.08 86.1467 1498.29 89.88C1499.6 93.52 1500.25 98.0467 1500.25 103.46V147H1482.05V107.24C1482.05 101.547 1480.75 97.44 1478.13 94.92C1475.61 92.4 1472.39 91.14 1468.47 91.14C1465.02 91.14 1461.85 92.1667 1458.95 94.22C1456.15 96.18 1454.24 98.6533 1453.21 101.64V147H1435.01V92.4H1424.93V77Z" fill="#666666"/>
<defs>
<clipPath id="clip0_7233_17993">
<rect width="238" height="238" fill="white" transform="translate(0 34)"/>
</clipPath>
</defs>
</svg>
