<svg width="611" height="611" viewBox="0 0 611 611" fill="none" xmlns="http://www.w3.org/2000/svg">
<g clip-path="url(#clip0_22_45)">
<path fill-rule="evenodd" clip-rule="evenodd" d="M159.392 59.9666C154.237 64.8998 153.04 72.6784 156.536 78.7339C158.968 82.9461 163.257 85.6086 167.949 86.1668C170.638 84.4816 173.368 82.8384 176.139 81.2387C178.913 79.6369 181.705 78.0922 184.513 76.6043C186.375 72.262 186.214 67.2158 183.782 63.0033C180.286 56.9481 172.952 54.0953 166.102 56.0927C164.975 56.7236 163.85 57.3629 162.728 58.0107C161.61 58.6563 160.498 59.3083 159.392 59.9666ZM125.615 83.4784C126.622 87.0818 128.095 90.622 130.057 94.0213C132.805 98.7809 136.273 102.847 140.241 106.17C91.2601 146.692 60.1493 202.869 50.0541 262.966C41.5591 259.825 32.1758 259.2 23.1397 261.364C33.9294 192.97 69.3502 128.964 125.615 83.4784ZM203.353 38.5988C205.97 41.2723 208.299 44.3171 210.261 47.7159C213.009 52.4761 214.797 57.5124 215.69 62.6119C275.052 40.5391 339.003 41.5973 395.935 62.6764C397.594 53.7633 401.874 45.37 408.39 38.7074C343.828 13.9455 270.789 12.6519 203.353 38.5988ZM444.392 55.4566C447.495 57.1707 450.568 58.9439 453.61 60.7759C454.118 61.3951 454.581 62.061 454.991 62.7709C459.109 69.9039 456.716 79.4276 449.012 83.8755C447.156 84.9466 445.2 85.6039 443.242 85.8848C437.852 82.5216 432.35 79.3646 426.749 76.4173C424.128 69.6105 426.75 61.4236 433.724 57.3969C437.143 55.4228 440.905 54.8545 444.392 55.4566ZM470.873 105.771C478.077 99.7695 483.14 91.8619 485.688 83.2328C512.272 104.715 535.428 131.358 553.54 162.728C571.651 194.099 583.147 227.474 588.459 261.237C579.712 259.13 570.332 259.561 561.532 262.799C556.545 233.093 546.258 203.759 530.312 176.139C514.365 148.519 494.105 124.943 470.873 105.771ZM564.892 315.688C565.14 309.364 565.157 303.02 564.939 296.671C566.162 295.115 567.709 293.75 569.564 292.679C577.268 288.231 586.713 290.92 590.831 298.053C591.241 298.763 591.586 299.496 591.868 300.246C591.934 303.797 591.933 307.345 591.866 310.888C590.644 314.209 588.271 317.183 584.852 319.157C577.877 323.184 569.476 321.361 564.892 315.688ZM561.385 349.244C551.191 408.989 520.218 464.814 471.561 505.172C475.548 508.502 479.032 512.58 481.79 517.358C483.742 520.739 485.21 524.26 486.216 527.844C542.248 482.43 577.551 418.626 588.37 350.442C579.342 352.754 569.933 352.264 561.385 349.244ZM452.471 551.398C451.262 552.119 450.045 552.833 448.822 553.54C447.805 554.127 446.785 554.707 445.764 555.281C438.909 557.289 431.564 554.436 428.065 548.376C425.636 544.169 425.472 539.131 427.327 534.793C430.037 533.352 432.732 531.859 435.411 530.312C438.277 528.657 441.1 526.956 443.878 525.21C448.578 525.763 452.876 528.427 455.311 532.645C458.804 538.695 457.613 546.464 452.471 551.398ZM396.167 548.824C397.064 553.904 398.848 558.921 401.586 563.663C403.559 567.079 405.902 570.138 408.535 572.822C340.921 598.935 267.648 597.643 202.918 572.75C209.311 566.007 213.461 557.568 214.989 548.641C272.176 569.982 336.5 571.096 396.167 548.824ZM168.795 525.968C173.642 528.978 178.578 531.82 183.595 534.494C186.943 541.491 184.425 550.344 177.081 554.584C174.279 556.202 171.246 556.875 168.324 556.734C164.187 554.474 160.102 552.108 156.071 549.639C155.983 549.498 155.897 549.355 155.814 549.21C151.696 542.077 154.089 532.553 161.793 528.105C164.038 526.809 166.43 526.119 168.795 525.968ZM140.568 505.689C117.382 486.533 97.1599 462.988 81.2387 435.411C65.3174 407.835 55.0378 378.55 50.0416 348.892C41.3023 352.284 31.9513 352.877 23.1906 350.939C28.5457 384.489 40.0108 417.645 58.0107 448.822C76.0107 479.999 98.9925 506.506 125.37 527.919C128.071 519.362 133.261 511.561 140.568 505.689ZM19.7308 313.49C19.8091 313.637 19.8901 313.783 19.9738 313.928C24.092 321.061 33.5365 323.75 41.2406 319.302C43.4851 318.006 45.2789 316.28 46.5922 314.307C46.4095 308.605 46.4158 302.909 46.6086 297.227C42.223 290.829 33.2973 288.583 25.9531 292.824C23.1512 294.441 21.0517 296.73 19.7124 299.332C19.6018 304.045 19.6075 308.766 19.7308 313.49Z" fill="white"/>
<path d="M197.022 55.3595C205.465 69.9833 200.283 88.7818 185.447 97.3472C170.611 105.913 151.74 101.001 143.297 86.3776C134.854 71.7538 140.036 52.9553 154.872 44.3899C169.708 35.8245 188.579 40.7358 197.022 55.3595Z" fill="white"/>
<path d="M196.299 525.836C204.742 540.459 199.56 559.258 184.724 567.823C169.889 576.389 151.018 571.477 142.575 556.854C134.132 542.23 139.314 523.431 154.15 514.866C168.985 506.301 187.856 511.212 196.299 525.836Z" fill="white"/>
<path d="M604.071 290.409C612.514 305.033 607.332 323.831 592.496 332.397C577.66 340.962 558.789 336.051 550.346 321.427C541.903 306.803 547.085 288.005 561.921 279.439C576.757 270.874 595.628 275.785 604.071 290.409Z" fill="white"/>
<path d="M60.4595 290.554C68.9025 305.178 63.7203 323.976 48.8846 332.542C34.0489 341.107 15.1777 336.196 6.73472 321.572C-1.70831 306.948 3.47397 288.15 18.3097 279.584C33.1453 271.019 52.0165 275.93 60.4595 290.554Z" fill="white"/>
<path d="M468.55 525.001C476.993 539.625 471.811 558.424 456.975 566.989C442.14 575.554 423.269 570.643 414.826 556.019C406.383 541.396 411.565 522.597 426.4 514.032C441.236 505.466 460.107 510.378 468.55 525.001Z" fill="white"/>
<path d="M468.23 55.1271C476.673 69.7509 471.491 88.5494 456.655 97.1148C441.819 105.68 422.948 100.769 414.505 86.1451C406.062 71.5214 411.244 52.7229 426.08 44.1575C440.916 35.5921 459.787 40.5034 468.23 55.1271Z" fill="white"/>
<path d="M226.537 378.039L156.489 308.912L227.102 246.699L243.484 275.041L203.376 310.295L244.049 351.079L226.537 378.039Z" fill="white"/>
<path d="M384.145 378.039L366.633 351.079L407.306 310.295L367.198 275.041L383.58 246.699L454.193 308.912L384.145 378.039Z" fill="white"/>
<path d="M352.693 209.271L324.679 197.477L261.991 418.781L290.005 430.575L352.693 209.271Z" fill="white"/>
</g>
<defs>
<clipPath id="clip0_22_45">
<rect width="611" height="611" fill="white"/>
</clipPath>
</defs>
</svg>
