<svg width="756" height="101" viewBox="0 0 756 101" fill="none" xmlns="http://www.w3.org/2000/svg">
<path d="M10.8661 70.1H21.1261V26.9H12.4861V37.79H2.58609V17H51.9061V37.79H42.0061V26.9H33.4561V70.1H43.6261V80H10.8661V70.1ZM102.271 75.23C101.491 75.95 100.471 76.67 99.2109 77.39C98.0109 78.05 96.5709 78.68 94.8909 79.28C93.2709 79.88 91.4709 80.36 89.4909 80.72C87.5109 81.08 85.4109 81.26 83.1909 81.26C79.3509 81.26 75.9009 80.72 72.8409 79.64C69.8409 78.56 67.2909 77 65.1909 74.96C63.0909 72.86 61.4709 70.37 60.3309 67.49C59.2509 64.55 58.7109 61.22 58.7109 57.5C58.7109 53.54 59.3409 50.09 60.6009 47.15C61.8609 44.15 63.5709 41.66 65.7309 39.68C67.9509 37.7 70.5309 36.23 73.4709 35.27C76.4109 34.25 79.5909 33.74 83.0109 33.74C85.2909 33.74 87.6309 34.04 90.0309 34.64C92.4909 35.24 94.7409 36.29 96.7809 37.79C98.8209 39.23 100.471 41.18 101.731 43.64C103.051 46.1 103.711 49.22 103.711 53C103.711 55.58 103.411 58.37 102.811 61.37H70.4109C70.4709 63.29 70.8609 64.91 71.5809 66.23C72.3609 67.55 73.3509 68.63 74.5509 69.47C75.8109 70.31 77.2209 70.94 78.7809 71.36C80.4009 71.72 82.1109 71.9 83.9109 71.9C87.5109 71.9 90.4509 71.48 92.7309 70.64C95.0709 69.8 96.9609 68.78 98.4009 67.58L102.271 75.23ZM82.8309 43.1C81.2709 43.1 79.8009 43.31 78.4209 43.73C77.0409 44.15 75.7809 44.78 74.6409 45.62C73.5609 46.4 72.6609 47.39 71.9409 48.59C71.2209 49.79 70.8009 51.14 70.6809 52.64H92.8209C92.8209 49.7 91.9809 47.39 90.3009 45.71C88.6809 43.97 86.1909 43.1 82.8309 43.1ZM157.316 75.68C154.856 77.54 151.976 78.95 148.676 79.91C145.376 80.81 141.926 81.26 138.326 81.26C134.426 81.26 130.946 80.69 127.886 79.55C124.886 78.41 122.336 76.82 120.236 74.78C118.196 72.68 116.636 70.16 115.556 67.22C114.476 64.28 113.936 61.04 113.936 57.5C113.936 53.72 114.566 50.36 115.826 47.42C117.086 44.48 118.826 41.99 121.046 39.95C123.326 37.91 125.996 36.38 129.056 35.36C132.116 34.28 135.446 33.74 139.046 33.74C142.406 33.74 145.556 34.13 148.496 34.91C151.436 35.69 153.686 36.44 155.246 37.16V53H145.346V44.72C143.486 44.3 141.626 44.09 139.766 44.09C138.086 44.09 136.406 44.36 134.726 44.9C133.106 45.38 131.636 46.19 130.316 47.33C129.056 48.41 128.006 49.79 127.166 51.47C126.386 53.15 125.996 55.16 125.996 57.5C125.996 59.42 126.326 61.19 126.986 62.81C127.646 64.43 128.576 65.84 129.776 67.04C130.976 68.24 132.446 69.2 134.186 69.92C135.986 70.58 137.966 70.91 140.126 70.91C143.546 70.91 146.336 70.43 148.496 69.47C150.716 68.51 152.366 67.67 153.446 66.95L157.316 75.68ZM162.141 17H180.321V40.04H180.681C182.121 38.12 184.041 36.59 186.441 35.45C188.841 34.31 191.661 33.74 194.901 33.74C197.181 33.74 199.281 34.04 201.201 34.64C203.121 35.24 204.771 36.23 206.151 37.61C207.531 38.99 208.611 40.88 209.391 43.28C210.171 45.62 210.561 48.53 210.561 52.01V80H198.861V54.44C198.861 50.78 198.081 48.14 196.521 46.52C194.961 44.9 192.921 44.09 190.401 44.09C188.181 44.09 186.141 44.78 184.281 46.16C182.421 47.48 181.101 49.19 180.321 51.29V80H168.621V26.9H162.141V17Z" fill="#B3DADF"/>
<path d="M256.065 58.85H265.965V76.85C264.045 78.23 261.585 79.31 258.585 80.09C255.645 80.87 252.615 81.26 249.495 81.26C245.535 81.26 241.755 80.69 238.155 79.55C234.615 78.35 231.495 76.46 228.795 73.88C226.095 71.24 223.935 67.85 222.315 63.71C220.695 59.51 219.885 54.44 219.885 48.5C219.885 42.32 220.785 37.16 222.585 33.02C224.445 28.82 226.815 25.46 229.695 22.94C232.575 20.36 235.785 18.53 239.325 17.45C242.865 16.31 246.345 15.74 249.765 15.74C253.365 15.74 256.395 16.04 258.855 16.64C261.375 17.24 263.445 17.93 265.065 18.71V37.43H255.165V27.17C253.305 26.87 251.385 26.72 249.405 26.72C247.065 26.72 244.875 27.17 242.835 28.07C240.855 28.91 239.115 30.23 237.615 32.03C236.115 33.83 234.945 36.11 234.105 38.87C233.265 41.57 232.845 44.78 232.845 48.5C232.845 51.74 233.235 54.71 234.015 57.41C234.795 60.05 235.935 62.33 237.435 64.25C238.935 66.17 240.765 67.67 242.925 68.75C245.085 69.77 247.545 70.28 250.305 70.28C252.285 70.28 254.205 70.1 256.065 69.74V58.85ZM273.22 57.5C273.22 53.72 273.79 50.36 274.93 47.42C276.07 44.48 277.69 41.99 279.79 39.95C281.89 37.91 284.38 36.38 287.26 35.36C290.2 34.28 293.47 33.74 297.07 33.74C300.85 33.74 304.21 34.31 307.15 35.45C310.15 36.59 312.67 38.21 314.71 40.31C316.75 42.35 318.28 44.84 319.3 47.78C320.38 50.72 320.92 53.96 320.92 57.5C320.92 61.28 320.35 64.64 319.21 67.58C318.07 70.52 316.45 73.01 314.35 75.05C312.25 77.09 309.73 78.65 306.79 79.73C303.91 80.75 300.67 81.26 297.07 81.26C293.29 81.26 289.9 80.69 286.9 79.55C283.96 78.41 281.47 76.82 279.43 74.78C277.39 72.68 275.83 70.16 274.75 67.22C273.73 64.28 273.22 61.04 273.22 57.5ZM285.28 57.5C285.28 59.48 285.55 61.31 286.09 62.99C286.63 64.67 287.41 66.14 288.43 67.4C289.45 68.66 290.68 69.65 292.12 70.37C293.56 71.03 295.21 71.36 297.07 71.36C300.55 71.36 303.37 70.25 305.53 68.03C307.75 65.81 308.86 62.3 308.86 57.5C308.86 53.36 307.84 50.03 305.8 47.51C303.76 44.93 300.85 43.64 297.07 43.64C295.39 43.64 293.83 43.91 292.39 44.45C290.95 44.93 289.69 45.74 288.61 46.88C287.59 48.02 286.78 49.46 286.18 51.2C285.58 52.94 285.28 55.04 285.28 57.5ZM325.115 35H340.865L342.215 40.94H342.575C343.955 39.02 345.935 37.34 348.515 35.9C351.095 34.46 354.185 33.74 357.785 33.74C360.005 33.74 362.075 34.04 363.995 34.64C365.975 35.24 367.655 36.23 369.035 37.61C370.415 38.99 371.495 40.88 372.275 43.28C373.115 45.62 373.535 48.53 373.535 52.01V80H361.835V54.44C361.835 50.78 360.995 48.14 359.315 46.52C357.695 44.9 355.625 44.09 353.105 44.09C350.885 44.09 348.845 44.75 346.985 46.07C345.185 47.33 343.955 48.92 343.295 50.84V80H331.595V44.9H325.115V35ZM379.08 35H394.83L396.18 40.94H396.54C397.92 39.02 399.9 37.34 402.48 35.9C405.06 34.46 408.15 33.74 411.75 33.74C413.97 33.74 416.04 34.04 417.96 34.64C419.94 35.24 421.62 36.23 423 37.61C424.38 38.99 425.46 40.88 426.24 43.28C427.08 45.62 427.5 48.53 427.5 52.01V80H415.8V54.44C415.8 50.78 414.96 48.14 413.28 46.52C411.66 44.9 409.59 44.09 407.07 44.09C404.85 44.09 402.81 44.75 400.95 46.07C399.15 47.33 397.92 48.92 397.26 50.84V80H385.56V44.9H379.08V35ZM480.025 75.23C479.245 75.95 478.225 76.67 476.965 77.39C475.765 78.05 474.325 78.68 472.645 79.28C471.025 79.88 469.225 80.36 467.245 80.72C465.265 81.08 463.165 81.26 460.945 81.26C457.105 81.26 453.655 80.72 450.595 79.64C447.595 78.56 445.045 77 442.945 74.96C440.845 72.86 439.225 70.37 438.085 67.49C437.005 64.55 436.465 61.22 436.465 57.5C436.465 53.54 437.095 50.09 438.355 47.15C439.615 44.15 441.325 41.66 443.485 39.68C445.705 37.7 448.285 36.23 451.225 35.27C454.165 34.25 457.345 33.74 460.765 33.74C463.045 33.74 465.385 34.04 467.785 34.64C470.245 35.24 472.495 36.29 474.535 37.79C476.575 39.23 478.225 41.18 479.485 43.64C480.805 46.1 481.465 49.22 481.465 53C481.465 55.58 481.165 58.37 480.565 61.37H448.165C448.225 63.29 448.615 64.91 449.335 66.23C450.115 67.55 451.105 68.63 452.305 69.47C453.565 70.31 454.975 70.94 456.535 71.36C458.155 71.72 459.865 71.9 461.665 71.9C465.265 71.9 468.205 71.48 470.485 70.64C472.825 69.8 474.715 68.78 476.155 67.58L480.025 75.23ZM460.585 43.1C459.025 43.1 457.555 43.31 456.175 43.73C454.795 44.15 453.535 44.78 452.395 45.62C451.315 46.4 450.415 47.39 449.695 48.59C448.975 49.79 448.555 51.14 448.435 52.64H470.575C470.575 49.7 469.735 47.39 468.055 45.71C466.435 43.97 463.945 43.1 460.585 43.1ZM535.07 75.68C532.61 77.54 529.73 78.95 526.43 79.91C523.13 80.81 519.68 81.26 516.08 81.26C512.18 81.26 508.7 80.69 505.64 79.55C502.64 78.41 500.09 76.82 497.99 74.78C495.95 72.68 494.39 70.16 493.31 67.22C492.23 64.28 491.69 61.04 491.69 57.5C491.69 53.72 492.32 50.36 493.58 47.42C494.84 44.48 496.58 41.99 498.8 39.95C501.08 37.91 503.75 36.38 506.81 35.36C509.87 34.28 513.2 33.74 516.8 33.74C520.16 33.74 523.31 34.13 526.25 34.91C529.19 35.69 531.44 36.44 533 37.16V53H523.1V44.72C521.24 44.3 519.38 44.09 517.52 44.09C515.84 44.09 514.16 44.36 512.48 44.9C510.86 45.38 509.39 46.19 508.07 47.33C506.81 48.41 505.76 49.79 504.92 51.47C504.14 53.15 503.75 55.16 503.75 57.5C503.75 59.42 504.08 61.19 504.74 62.81C505.4 64.43 506.33 65.84 507.53 67.04C508.73 68.24 510.2 69.2 511.94 69.92C513.74 70.58 515.72 70.91 517.88 70.91C521.3 70.91 524.09 70.43 526.25 69.47C528.47 68.51 530.12 67.67 531.2 66.95L535.07 75.68ZM550.335 44.9H541.425V35H550.335V24.74L562.035 21.41V35H585.615V44.9H562.035V57.77C562.035 62.39 562.905 65.75 564.645 67.85C566.385 69.89 568.815 70.91 571.935 70.91C573.555 70.91 575.025 70.73 576.345 70.37C577.665 69.95 578.835 69.44 579.855 68.84C580.935 68.24 581.895 67.58 582.735 66.86C583.635 66.14 584.445 65.48 585.165 64.88L590.565 72.98C589.545 74.18 588.255 75.29 586.695 76.31C585.195 77.27 583.545 78.14 581.745 78.92C580.005 79.64 578.175 80.21 576.255 80.63C574.335 81.05 572.445 81.26 570.585 81.26C563.865 81.26 558.795 79.4 555.375 75.68C552.015 71.9 550.335 65.93 550.335 57.77V44.9ZM599.169 70.1H615.009V44.9H599.169V35H626.709V70.1H643.359V80H599.169V70.1ZM612.849 22.76C612.849 20.9 613.539 19.31 614.919 17.99C616.299 16.67 618.219 16.01 620.679 16.01C623.199 16.01 625.209 16.67 626.709 17.99C628.209 19.31 628.959 20.9 628.959 22.76C628.959 24.68 628.209 26.27 626.709 27.53C625.209 28.73 623.199 29.33 620.679 29.33C618.219 29.33 616.299 28.73 614.919 27.53C613.539 26.27 612.849 24.68 612.849 22.76ZM650.974 57.5C650.974 53.72 651.544 50.36 652.684 47.42C653.824 44.48 655.444 41.99 657.544 39.95C659.644 37.91 662.134 36.38 665.014 35.36C667.954 34.28 671.224 33.74 674.824 33.74C678.604 33.74 681.964 34.31 684.904 35.45C687.904 36.59 690.424 38.21 692.464 40.31C694.504 42.35 696.034 44.84 697.054 47.78C698.134 50.72 698.674 53.96 698.674 57.5C698.674 61.28 698.104 64.64 696.964 67.58C695.824 70.52 694.204 73.01 692.104 75.05C690.004 77.09 687.484 78.65 684.544 79.73C681.664 80.75 678.424 81.26 674.824 81.26C671.044 81.26 667.654 80.69 664.654 79.55C661.714 78.41 659.224 76.82 657.184 74.78C655.144 72.68 653.584 70.16 652.504 67.22C651.484 64.28 650.974 61.04 650.974 57.5ZM663.034 57.5C663.034 59.48 663.304 61.31 663.844 62.99C664.384 64.67 665.164 66.14 666.184 67.4C667.204 68.66 668.434 69.65 669.874 70.37C671.314 71.03 672.964 71.36 674.824 71.36C678.304 71.36 681.124 70.25 683.284 68.03C685.504 65.81 686.614 62.3 686.614 57.5C686.614 53.36 685.594 50.03 683.554 47.51C681.514 44.93 678.604 43.64 674.824 43.64C673.144 43.64 671.584 43.91 670.144 44.45C668.704 44.93 667.444 45.74 666.364 46.88C665.344 48.02 664.534 49.46 663.934 51.2C663.334 52.94 663.034 55.04 663.034 57.5ZM702.869 35H718.619L719.969 40.94H720.329C721.709 39.02 723.689 37.34 726.269 35.9C728.849 34.46 731.939 33.74 735.539 33.74C737.759 33.74 739.829 34.04 741.749 34.64C743.729 35.24 745.409 36.23 746.789 37.61C748.169 38.99 749.249 40.88 750.029 43.28C750.869 45.62 751.289 48.53 751.289 52.01V80H739.589V54.44C739.589 50.78 738.749 48.14 737.069 46.52C735.449 44.9 733.379 44.09 730.859 44.09C728.639 44.09 726.599 44.75 724.739 46.07C722.939 47.33 721.709 48.92 721.049 50.84V80H709.349V44.9H702.869V35Z" fill="white"/>
</svg>
